HIERARCHY
ROOT Hips
{
  OFFSET 361.987 90.9444 208.986
  CHANNELS 6 Xposition Yposition Zposition Zrotation Xrotation Yrotation
  JOINT RightUpLeg
  {
    OFFSET -9.2522 -1.59682 0.0279277
    CHANNELS 6 Xposition Yposition Zposition Zrotation Xrotation Yrotation
    JOINT RightLeg
    {
      OFFSET 0.0747074 -41.8862 0.0914822
      CHANNELS 6 Xposition Yposition Zposition Zrotation Xrotation Yrotation
      JOINT RightFoot
      {
        OFFSET -0.151248 -41.5212 0.561876
        CHANNELS 6 Xposition Yposition Zposition Zrotation Xrotation Yrotation
        End Site
        {
          OFFSET 0 -7.69 17.5
        }
      }
    }
  }
  JOINT LeftUpLeg
  {
    OFFSET 9.3052 -1.61699 0.00247376
    CHANNELS 6 Xposition Yposition Zposition Zrotation Xrotation Yrotation
    JOINT LeftLeg
    {
      OFFSET 0.0747978 -41.873 0.0331682
      CHANNELS 6 Xposition Yposition Zposition Zrotation Xrotation Yrotation
      JOINT LeftFoot
      {
        OFFSET -0.911297 -41.7622 -0.129555
        CHANNELS 6 Xposition Yposition Zposition Zrotation Xrotation Yrotation
        End Site
        {
          OFFSET 0 -7.69 17.5
        }
      }
    }
  }
  JOINT Spine
  {
    OFFSET -0.0405741 14.3032 0.0638722
    CHANNELS 6 Xposition Yposition Zposition Zrotation Xrotation Yrotation
    JOINT Spine1
    {
      OFFSET 0.00267447 9.71289 0.0302688
      CHANNELS 6 Xposition Yposition Zposition Zrotation Xrotation Yrotation
      JOINT Spine2
      {
        OFFSET 0.0765809 10.1159 0.0211579
        CHANNELS 6 Xposition Yposition Zposition Zrotation Xrotation Yrotation
        JOINT Spine3
        {
          OFFSET 0.0130209 9.71063 0.0199857
          CHANNELS 6 Xposition Yposition Zposition Zrotation Xrotation Yrotation
          JOINT Neck
          {
            OFFSET -0.000506199 10.3849 -0.0559176
            CHANNELS 6 Xposition Yposition Zposition Zrotation Xrotation Yrotation
            JOINT Head
            {
              OFFSET -0.0574137 9.48321 0.019086
              CHANNELS 6 Xposition Yposition Zposition Zrotation Xrotation Yrotation
              End Site
              {
                OFFSET 0 15.95 0
              }
            }
          }
          JOINT RightShoulder
          {
            OFFSET -3.17284 6.93258 0.0374432
            CHANNELS 6 Xposition Yposition Zposition Zrotation Xrotation Yrotation
            JOINT RightArm
            {
              OFFSET -12.7367 -0.0856526 0.0353194
              CHANNELS 6 Xposition Yposition Zposition Zrotation Xrotation Yrotation
              JOINT RightForeArm
              {
                OFFSET -26.438 -0.108261 -0.0267403
                CHANNELS 6 Xposition Yposition Zposition Zrotation Xrotation Yrotation
                JOINT RightHand
                {
                  OFFSET -26.0041 0.0666393 -0.0599755
                  CHANNELS 6 Xposition Yposition Zposition Zrotation Xrotation Yrotation
                  JOINT RightHandThumb1
                  {
                    OFFSET -2.48905 0.190105 3.12053
                    CHANNELS 6 Xposition Yposition Zposition Zrotation Xrotation Yrotation
                    JOINT RightHandThumb2
                    {
                      OFFSET -3.68274 0 0
                      CHANNELS 6 Xposition Yposition Zposition Zrotation Xrotation Yrotation
                      JOINT RightHandThumb3
                      {
                        OFFSET -2.55832 0 0
                        CHANNELS 6 Xposition Yposition Zposition Zrotation Xrotation Yrotation
                        End Site
                        {
                          OFFSET -2.194 0 0
                        }
                      }
                    }
                  }
                  JOINT RightInHandIndex
                  {
                    OFFSET -3.22368 0.508421 1.97842
                    CHANNELS 6 Xposition Yposition Zposition Zrotation Xrotation Yrotation
                    JOINT RightHandIndex1
                    {
                      OFFSET -5.21684 -0.091368 0.999158
                      CHANNELS 6 Xposition Yposition Zposition Zrotation Xrotation Yrotation
                      JOINT RightHandIndex2
                      {
                        OFFSET -3.61937 0 0
                        CHANNELS 6 Xposition Yposition Zposition Zrotation Xrotation Yrotation
                        JOINT RightHandIndex3
                        {
                          OFFSET -2.0521 0 0
                          CHANNELS 6 Xposition Yposition Zposition Zrotation Xrotation Yrotation
                          End Site
                          {
                            OFFSET -1.805 0 0
                          }
                        }
                      }
                    }
                  }
                  JOINT RightInHandMiddle
                  {
                    OFFSET -3.38211 0.517263 0.756737
                    CHANNELS 6 Xposition Yposition Zposition Zrotation Xrotation Yrotation
                    JOINT RightHandMiddle1
                    {
                      OFFSET -5.17411 -0.084 0.313895
                      CHANNELS 6 Xposition Yposition Zposition Zrotation Xrotation Yrotation
                      JOINT RightHandMiddle2
                      {
                        OFFSET -3.94947 0 0
                        CHANNELS 6 Xposition Yposition Zposition Zrotation Xrotation Yrotation
                        JOINT RightHandMiddle3
                        {
                          OFFSET -2.47579 0 0
                          CHANNELS 6 Xposition Yposition Zposition Zrotation Xrotation Yrotation
                          End Site
                          {
                            OFFSET -1.975 0 0
                          }
                        }
                      }
                    }
                  }
                  JOINT RightInHandRing
                  {
                    OFFSET -3.36516 0.537895 -0.128947
                    CHANNELS 6 Xposition Yposition Zposition Zrotation Xrotation Yrotation
                    JOINT RightHandRing1
                    {
                      OFFSET -4.63474 -0.022105 -0.478947
                      CHANNELS 6 Xposition Yposition Zposition Zrotation Xrotation Yrotation
                      JOINT RightHandRing2
                      {
                        OFFSET -3.44238 0 0
                        CHANNELS 6 Xposition Yposition Zposition Zrotation Xrotation Yrotation
                        JOINT RightHandRing3
                        {
                          OFFSET -2.3881 0 0
                          CHANNELS 6 Xposition Yposition Zposition Zrotation Xrotation Yrotation
                          End Site
                          {
                            OFFSET -1.857 0 0
                          }
                        }
                      }
                    }
                  }
                  JOINT RightInHandPinky
                  {
                    OFFSET -3.16105 0.469368 -1.20179
                    CHANNELS 6 Xposition Yposition Zposition Zrotation Xrotation Yrotation
                    JOINT RightHandPinky1
                    {
                      OFFSET -4.14105 -0.022105 -1.09053
                      CHANNELS 6 Xposition Yposition Zposition Zrotation Xrotation Yrotation
                      JOINT RightHandPinky2
                      {
                        OFFSET -2.75653 0 0
                        CHANNELS 6 Xposition Yposition Zposition Zrotation Xrotation Yrotation
                        JOINT RightHandPinky3
                        {
                          OFFSET -1.74189 0 0
                          CHANNELS 6 Xposition Yposition Zposition Zrotation Xrotation Yrotation
                          End Site
                          {
                            OFFSET -1.645 0 0
                          }
                        }
                      }
                    }
                  }
                }
              }
            }
          }
          JOINT LeftShoulder
          {
            OFFSET 3.23396 6.90331 -0.0188646
            CHANNELS 6 Xposition Yposition Zposition Zrotation Xrotation Yrotation
            JOINT LeftArm
            {
              OFFSET 12.8962 -0.279022 -0.330674
              CHANNELS 6 Xposition Yposition Zposition Zrotation Xrotation Yrotation
              JOINT LeftForeArm
              {
                OFFSET 26.496 0.173646 -0.339204
                CHANNELS 6 Xposition Yposition Zposition Zrotation Xrotation Yrotation
                JOINT LeftHand
                {
                  OFFSET 25.9868 -0.151409 -0.0842447
                  CHANNELS 6 Xposition Yposition Zposition Zrotation Xrotation Yrotation
                  JOINT LeftHandThumb1
                  {
                    OFFSET 2.48905 0.190105 3.12053
                    CHANNELS 6 Xposition Yposition Zposition Zrotation Xrotation Yrotation
                    JOINT LeftHandThumb2
                    {
                      OFFSET 3.68274 0 0
                      CHANNELS 6 Xposition Yposition Zposition Zrotation Xrotation Yrotation
                      JOINT LeftHandThumb3
                      {
                        OFFSET 2.55832 0 0
                        CHANNELS 6 Xposition Yposition Zposition Zrotation Xrotation Yrotation
                        End Site
                        {
                          OFFSET 2.194 0 0
                        }
                      }
                    }
                  }
                  JOINT LeftInHandIndex
                  {
                    OFFSET 3.22368 0.508421 1.97842
                    CHANNELS 6 Xposition Yposition Zposition Zrotation Xrotation Yrotation
                    JOINT LeftHandIndex1
                    {
                      OFFSET 5.21684 -0.091368 0.999158
                      CHANNELS 6 Xposition Yposition Zposition Zrotation Xrotation Yrotation
                      JOINT LeftHandIndex2
                      {
                        OFFSET 3.61937 0 0
                        CHANNELS 6 Xposition Yposition Zposition Zrotation Xrotation Yrotation
                        JOINT LeftHandIndex3
                        {
                          OFFSET 2.0521 0 0
                          CHANNELS 6 Xposition Yposition Zposition Zrotation Xrotation Yrotation
                          End Site
                          {
                            OFFSET 1.805 0 0
                          }
                        }
                      }
                    }
                  }
                  JOINT LeftInHandMiddle
                  {
                    OFFSET 3.38211 0.517263 0.756737
                    CHANNELS 6 Xposition Yposition Zposition Zrotation Xrotation Yrotation
                    JOINT LeftHandMiddle1
                    {
                      OFFSET 5.17411 -0.084 0.313895
                      CHANNELS 6 Xposition Yposition Zposition Zrotation Xrotation Yrotation
                      JOINT LeftHandMiddle2
                      {
                        OFFSET 3.94947 0 0
                        CHANNELS 6 Xposition Yposition Zposition Zrotation Xrotation Yrotation
                        JOINT LeftHandMiddle3
                        {
                          OFFSET 2.47579 0 0
                          CHANNELS 6 Xposition Yposition Zposition Zrotation Xrotation Yrotation
                          End Site
                          {
                            OFFSET 1.975 0 0
                          }
                        }
                      }
                    }
                  }
                  JOINT LeftInHandRing
                  {
                    OFFSET 3.36516 0.537895 -0.128947
                    CHANNELS 6 Xposition Yposition Zposition Zrotation Xrotation Yrotation
                    JOINT LeftHandRing1
                    {
                      OFFSET 4.63474 -0.022105 -0.478947
                      CHANNELS 6 Xposition Yposition Zposition Zrotation Xrotation Yrotation
                      JOINT LeftHandRing2
                      {
                        OFFSET 3.44238 0 0
                        CHANNELS 6 Xposition Yposition Zposition Zrotation Xrotation Yrotation
                        JOINT LeftHandRing3
                        {
                          OFFSET 2.3881 0 0
                          CHANNELS 6 Xposition Yposition Zposition Zrotation Xrotation Yrotation
                          End Site
                          {
                            OFFSET 1.857 0 0
                          }
                        }
                      }
                    }
                  }
                  JOINT LeftInHandPinky
                  {
                    OFFSET 3.16105 0.469368 -1.20179
                    CHANNELS 6 Xposition Yposition Zposition Zrotation Xrotation Yrotation
                    JOINT LeftHandPinky1
                    {
                      OFFSET 4.14105 -0.022105 -1.09053
                      CHANNELS 6 Xposition Yposition Zposition Zrotation Xrotation Yrotation
                      JOINT LeftHandPinky2
                      {
                        OFFSET 2.75653 0 0
                        CHANNELS 6 Xposition Yposition Zposition Zrotation Xrotation Yrotation
                        JOINT LeftHandPinky3
                        {
                          OFFSET 1.74189 0 0
                          CHANNELS 6 Xposition Yposition Zposition Zrotation Xrotation Yrotation
                          End Site
                          {
                            OFFSET 1.645 0 0
                          }
                        }
                      }
                    }
                  }
                }
              }
            }
          }
        }
      }
    }
  }
}
MOTION
Frames:	3
Frame Time:	0.00833333
373.837 88.1765 177.628 26.722 13.1334 -70.567 -9.27704 -1.55371 -0.0617006 -17.3232 -57.794 -21.9479 0.0563853 -41.8765 0.0526834 -0.989558 22.5012 -10.7618 -0.463049 -43.0064 -0.0336586 6.36922 8.54318 24.3011 9.2907 -1.63815 0.0236341 18.9448 -50.9807 7.10013 0.0646622 -41.8798 -0.0571096 3.56258 31.2574 -2.33038 0.591956 -40.8378 0.208971 -13.4715 -9.34832 -16.8915 0.0229142 14.301 0.0394214 -4.71639 12.8211 13.7955 0.0328969 9.72032 0.0113833 -0.89637 3.18298 3.40687 0.0292955 10.1193 -0.00440821 -1.52298 5.07198 5.62651 0.024556 9.7116 0.0101567 -0.596918 -0.46656 -0.399423 0.152325 10.3821 0.0664015 -0.598559 -0.47142 -0.39531 0.141748 9.48424 0.0473145 -11.422 -8.73531 -6.88776 -3.19519 6.8985 -0.0330231 -2.69987 -11.6429 24.2465 -12.6521 0.092808 0.0603028 71.8638 -5.02369 55.3951 -26.5019 -0.141666 0.203042 15.9489 -59.2621 6.17463 -25.988 -0.0272322 0.00760669 12.9361 -22.2507 -17.0472 -2.48905 0.190105 3.12053 28.184 10.7294 19.1592 -3.68274 0 -5.68434e-14 -3.22962e-15 0 -10 -2.55832 0 0 6.26646e-15 -1.09332e-15 -10 -3.22368 0.508421 1.97842 3.18055e-15 -6.36111e-15 -6.36111e-15 -5.21684 -0.091368 0.999158 19.9818 0.871897 2.3964 -3.61937 7.10543e-15 0 24 -4.12478e-15 -0 -2.0521 7.10543e-15 5.68434e-14 20 7.95139e-15 4.13472e-14 -3.38211 0.517263 0.756737 3.18055e-15 -6.36111e-15 -6.36111e-15 -5.17411 -0.084 0.313895 20 -5.56597e-15 -3.97569e-15 -3.94947 -1.42109e-14 0 24 -6.75868e-15 -1.59028e-15 -2.47579 -1.42109e-14 0 20 7.15625e-15 3.02153e-14 -3.36516 0.537895 -0.128947 3.18055e-15 -6.36111e-15 -6.36111e-15 -4.63474 -0.022105 -0.478947 19.9748 -1.02565 -2.81938 -3.44238 7.10543e-15 0 24 -1.68967e-15 -4.77083e-15 -2.3881 -1.42109e-14 0 20 9.54166e-15 3.02153e-14 -3.16105 0.469368 -1.20179 3.18055e-15 -6.36111e-15 -6.36111e-15 -4.14105 -0.022105 -1.09053 19.7815 -3.00948 -8.30515 -2.75653 2.13163e-14 -1.13687e-13 24 -3.97569e-15 -3.18055e-15 -1.74189 2.84217e-14 1.13687e-13 20 -5.1684e-15 9.54166e-15 3.28609 6.87466 -0.0693653 12.9558 -14.9345 -34.6271 12.8438 -0.0738583 -0.1321 -36.6843 26.0091 -68.3681 26.4993 -0.078881 -0.102204 15.949 -44.8453 19.2351 25.9978 -0.0289958 -0.0599066 -22.0609 -22.9359 9.61608 2.48905 0.190105 3.12053 -28.184 10.7294 -19.1592 3.68274 0 0 3.22962e-15 0 10 2.55832 0 -2.84217e-14 -2.80409e-16 1.59028e-15 10 3.22368 0.508421 1.97842 -1.59028e-15 0 -7.95139e-16 5.21684 -0.091368 0.999158 -19.9818 0.871897 -2.3964 3.61937 0 0 -24 -3.18055e-15 1.59028e-14 2.0521 0 0 -20 -2.78299e-15 6.36111e-15 3.38211 0.517263 0.756737 -1.59028e-15 0 -7.95139e-16 5.17411 -0.084 0.313895 -20 -1.59028e-15 4.77083e-15 3.94947 0 -5.68434e-14 -24 -6.36111e-15 -0 2.47579 0 0 -20 7.95139e-16 -3.18055e-15 3.36516 0.537895 -0.128947 -1.59028e-15 0 -7.95139e-16 4.63474 -0.022105 -0.478947 -19.9748 -1.02565 2.81938 3.44238 0 5.68434e-14 -24 1.59028e-15 1.43125e-14 2.3881 -2.84217e-14 -5.68434e-14 -20 -5.1684e-15 6.36111e-15 3.16105 0.469368 -1.20179 -1.59028e-15 0 -7.95139e-16 4.14105 -0.022105 -1.09053 -19.7815 -3.00948 8.30515 2.75653 2.84217e-14 0 -24 -7.95139e-16 1.27222e-14 1.74189 -2.84217e-14 0 -20 -6.75868e-15 6.36111e-15 
373.852 88.1767 177.668 26.6633 12.9466 -70.8634 -9.27686 -1.53573 -0.0372184 -16.9862 -57.7366 -21.466 0.0557377 -41.8764 0.0530374 -1.03984 22.4496 -10.6812 -0.45416 -43.0136 -0.00761394 6.39833 8.57805 24.3505 9.29109 -1.65303 -0.00308167 19.0294 -50.8061 7.31088 0.0649845 -41.8786 -0.0578197 3.48511 31.3703 -2.22624 0.604948 -40.8376 0.211536 -13.4154 -9.42922 -16.83 0.0464416 14.3009 0.0572566 -4.80209 12.8587 13.8765 0.029417 9.72032 0.0106198 -0.915193 3.19444 3.42315 0.0154652 10.1193 -0.0129172 -1.55357 5.08911 5.65072 0.00742187 9.71159 -0.00108119 -0.603385 -0.466352 -0.393581 0.145415 10.382 0.0585474 -0.605066 -0.4712 -0.389426 0.142004 9.4858 0.0475179 -11.5342 -8.74772 -6.78318 -3.21297 6.89024 -0.0554468 -2.71559 -11.5542 24.196 -12.6524 0.0927817 0.0446132 72.0743 -5.47248 55.0476 -26.5017 -0.141459 0.202928 17.5634 -59.4994 7.93864 -25.988 -0.0237056 0.00977877 12.8994 -22.2615 -16.9694 -2.48905 0.190105 3.12053 28.184 10.7294 19.1592 -3.68274 0 5.68434e-14 -6.17883e-15 1.59028e-15 -10 -2.55832 2.84217e-14 0 3.50127e-15 1.54058e-15 -10 -3.22368 0.508421 1.97842 3.18055e-15 0 -6.36111e-15 -5.21684 -0.091368 0.999158 19.9818 0.871897 2.3964 -3.61937 2.84217e-14 0 24 -7.45443e-16 3.97569e-15 -2.0521 -7.10543e-15 0 20 1.39149e-15 4.53229e-14 -3.38211 0.517263 0.756737 3.18055e-15 0 -6.36111e-15 -5.17411 -0.084 0.313895 20 -1.59028e-15 3.18055e-15 -3.94947 -7.10543e-15 0 24 2.68359e-15 7.95139e-15 -2.47579 -1.42109e-14 5.68434e-14 20 8.34896e-15 3.02153e-14 -3.36516 0.537895 -0.128947 3.18055e-15 0 -6.36111e-15 -4.63474 -0.022105 -0.478947 19.9748 -1.02565 -2.81938 -3.44238 7.10543e-15 0 24 -1.2921e-15 1.27222e-14 -2.3881 -2.84217e-14 0 20 3.18055e-15 1.90833e-14 -3.16105 0.469368 -1.20179 3.18055e-15 0 -6.36111e-15 -4.14105 -0.022105 -1.09053 19.7815 -3.00948 -8.30515 -2.75653 -1.42109e-14 1.13687e-13 24 1.98785e-16 3.18055e-15 -1.74189 1.42109e-14 -5.68434e-14 20 1.07344e-14 7.95139e-15 3.27478 6.87688 -0.0728111 13.031 -15.0061 -34.9149 12.8374 -0.0726418 -0.127212 -36.6436 26.0246 -68.4274 26.4993 -0.0789979 -0.0958226 15.9099 -44.1537 19.1688 25.9972 -0.029525 -0.0579422 -22.0419 -22.8852 9.62286 2.48905 0.190105 3.12053 -28.184 10.7294 -19.1592 3.68274 0 0 -2.6688e-15 -3.18055e-15 10 2.55832 0 0 4.35126e-15 -6.36111e-15 10 3.22368 0.508421 1.97842 -1.59028e-15 3.18055e-15 1.59028e-15 5.21684 -0.091368 0.999158 -19.9818 0.871897 -2.3964 3.61937 0 0 -24 4.77083e-15 -6.36111e-15 2.0521 -1.42109e-14 5.68434e-14 -20 3.97569e-16 -1.27222e-14 3.38211 0.517263 0.756737 -1.59028e-15 3.18055e-15 1.59028e-15 5.17411 -0.084 0.313895 -20 3.18055e-15 -1.59028e-15 3.94947 0 0 -24 3.18055e-15 -4.77083e-15 2.47579 0 -5.68434e-14 -20 3.18055e-15 -6.36111e-15 3.36516 0.537895 -0.128947 -1.59028e-15 3.18055e-15 1.59028e-15 4.63474 -0.022105 -0.478947 -19.9748 -1.02565 2.81938 3.44238 0 -5.68434e-14 -24 1.59028e-15 1.59028e-15 2.3881 -2.84217e-14 1.13687e-13 -20 1.98785e-15 -6.36111e-15 3.16105 0.469368 -1.20179 -1.59028e-15 3.18055e-15 1.59028e-15 4.14105 -0.022105 -1.09053 -19.7815 -3.00948 8.30515 2.75653 0 0 -24 -3.18055e-15 -1.43125e-14 1.74189 0 0 -20 7.15625e-15 -1.43125e-14 
373.861 88.1767 177.711 26.5957 12.7587 -71.1607 -9.27666 -1.52303 -0.0189191 -16.6585 -57.6725 -21.0084 0.0563268 -41.8761 0.0534194 -1.10284 22.3902 -10.5988 -0.440383 -43.0207 0.0093578 6.43651 8.62592 24.4184 9.29141 -1.66785 -0.0245623 19.1149 -50.6237 7.50668 0.0652546 -41.8776 -0.0647781 3.3974 31.4869 -2.10542 0.619754 -40.8373 0.211662 -13.3603 -9.51375 -16.7686 0.0584987 14.3009 0.0682931 -4.96418 12.927 14.1046 0.0107509 9.72031 0.00979912 -0.949438 3.2169 3.47466 -0.0141871 10.1193 -0.0323844 -1.60946 5.12316 5.73041 -0.0274553 9.71159 -0.0247732 -0.60478 -0.466154 -0.398634 0.120836 10.382 0.0404316 -0.60648 -0.470992 -0.394455 0.134553 9.48726 0.0477932 -11.5701 -8.78027 -6.87119 -3.22975 6.8906 -0.0658623 -2.62984 -11.517 23.7757 -12.6434 0.0975474 0.0528044 72.3242 -5.85964 54.7151 -26.5015 -0.149291 0.209515 19.2394 -59.668 9.75206 -25.988 -0.0240172 0.00771277 12.8912 -22.2415 -16.8914 -2.48905 0.190105 3.12053 28.184 10.7294 19.1592 -3.68274 0 5.68434e-14 -3.22962e-15 0 -10 -2.55832 -1.42109e-14 -5.68434e-14 -1.35571e-14 -3.62161e-15 -10 -3.22368 0.508421 1.97842 -3.18055e-15 -2.38542e-15 -0 -5.21684 -0.091368 0.999158 19.9818 0.871897 2.3964 -3.61937 -1.42109e-14 0 24 -1.2921e-15 -5.56597e-15 -2.0521 -1.42109e-14 0 20 -4.57205e-15 -2.70347e-14 -3.38211 0.517263 0.756737 -3.18055e-15 -2.38542e-15 -0 -5.17411 -0.084 0.313895 20 -4.37326e-15 -3.97569e-15 -3.94947 1.42109e-14 0 24 5.76476e-15 -1.27222e-14 -2.47579 -2.13163e-14 -5.68434e-14 20 -1.39149e-15 -2.94201e-14 -3.36516 0.537895 -0.128947 -3.18055e-15 -2.38542e-15 -0 -4.63474 -0.022105 -0.478947 19.9748 -1.02565 -2.81938 -3.44238 7.10543e-15 -5.68434e-14 24 -2.08724e-15 -1.43125e-14 -2.3881 -1.42109e-14 5.68434e-14 20 4.37326e-15 -1.59028e-14 -3.16105 0.469368 -1.20179 -3.18055e-15 -2.38542e-15 -0 -4.14105 -0.022105 -1.09053 19.7815 -3.00948 -8.30515 -2.75653 0 0 24 -9.93923e-15 -1.59028e-14 -1.74189 1.42109e-14 5.68434e-14 20 2.38542e-15 -1.59028e-14 3.25494 6.87948 -0.0757421 13.1638 -15.2137 -35.4016 12.831 -0.0707879 -0.122049 -36.597 26.0442 -68.4777 26.4994 -0.0793081 -0.0903645 15.8564 -43.46 19.0853 25.9968 -0.030073 -0.055806 -22.0085 -22.8295 9.63727 2.48905 0.190105 3.12053 -28.184 10.7294 -19.1592 3.68274 0 5.68434e-14 -1.17968e-14 -6.36111e-15 10 2.55832 0 -2.84217e-14 7.58087e-15 -6.36111e-15 10 3.22368 0.508421 1.97842 0 1.59028e-15 -0 5.21684 -0.091368 0.999158 -19.9818 0.871897 -2.3964 3.61937 -2.84217e-14 -5.68434e-14 -24 1.59028e-15 -1.11319e-14 2.0521 1.42109e-14 0 -20 3.57812e-15 -1.27222e-14 3.38211 0.517263 0.756737 0 1.59028e-15 -0 5.17411 -0.084 0.313895 -20 0 -4.77083e-15 3.94947 0 0 -24 4.77083e-15 -4.77083e-15 2.47579 -1.42109e-14 0 -20 1.19271e-15 -6.36111e-15 3.36516 0.537895 -0.128947 0 1.59028e-15 -0 4.63474 -0.022105 -0.478947 -19.9748 -1.02565 2.81938 3.44238 0 0 -24 3.18055e-15 -9.54166e-15 2.3881 0 -5.68434e-14 -20 4.37326e-15 -1.43125e-14 3.16105 0.469368 -1.20179 0 1.59028e-15 -0 4.14105 -0.022105 -1.09053 -19.7815 -3.00948 8.30515 2.75653 0 0 -24 4.77083e-15 -1.59028e-15 1.74189 -2.84217e-14 -5.68434e-14 -20 4.37326e-15 -6.36111e-15 
